<?xml version="1.0" encoding="UTF-8" standalone="no"?>
<!DOCTYPE svg PUBLIC "-//W3C//DTD SVG 1.1//EN" "http://www.w3.org/Graphics/SVG/1.1/DTD/svg11.dtd">
<svg width="100%" height="100%" viewBox="0 0 512 512" version="1.1" xmlns="http://www.w3.org/2000/svg" xmlns:xlink="http://www.w3.org/1999/xlink" xml:space="preserve" xmlns:serif="http://www.serif.com/" style="fill-rule:evenodd;clip-rule:evenodd;stroke-linejoin:round;stroke-miterlimit:2;">
    <path d="M256,480C245.7,480 235.8,476.1 228.3,469.1L47.59,300.4C17.23,272.1 0,232.4 0,190.9L0,185.1C0,115.2 50.52,55.58 119.4,44.09C164.1,36.51 211.4,51.38 244,84.02L256,96L256,480Z" style="fill:white;fill-rule:nonzero;"/>
    <path d="M256,480L256,96L267.1,84.02C300.6,51.37 347,36.51 392.6,44.1C461.5,55.58 512,115.2 512,185.1L512,190.9C512,232.4 494.8,272.1 464.4,300.4L283.7,469.1C276.2,476.1 266.3,480 256,480Z" style="fill:white;fill-opacity:0.4;fill-rule:nonzero;"/>
</svg>
